<svg xmlns="http://www.w3.org/2000/svg" viewBox="0 0 1200 900"><defs><linearGradient id="g" x1="0" x2="1"><stop stop-color="#0d1117"/><stop offset=".55" stop-color="#15304b"/><stop offset="1" stop-color="#050505"/></linearGradient><radialGradient id="s"><stop stop-color="#e2b795"/><stop offset=".55" stop-color="#a86f50"/><stop offset="1" stop-color="#4a251d"/></radialGradient></defs><rect width="1200" height="900" fill="url(#g)"/><circle cx="650" cy="280" r="148" fill="url(#s)"/><path d="M520 280q28-210 255-115 70 35 42 185l-55-65q-115-15-242 55z" fill="#17110e"/><path d="M420 900q50-320 230-390 190 55 265 390z" fill="#d8d8d8"/><path d="M595 420q64 48 130 0v125q-66 62-130 0z" fill="#b97d5f"/><circle cx="607" cy="296" r="11"/><circle cx="696" cy="296" r="11"/><path d="M620 366q36 24 74 0" fill="none" stroke="#663128" stroke-width="8" stroke-linecap="round"/><text x="64" y="92" fill="#d4af37" font-family="Georgia" font-size="58">BEATRIZ MARTINS</text><text x="67" y="132" fill="#fff" font-family="Arial" font-size="20" letter-spacing="5">MODELO FICTÍCIA · TOPS DA SEMANA</text></svg>